<svg xmlns="http://www.w3.org/2000/svg" viewBox="0 0 1200 620" width="1200" height="620" role="img" aria-labelledby="title desc">
  <title id="title">CausaForge Workflow</title>
  <desc id="desc">CausaForge six-stage evidence-chain workflow with gates and rollback paths.</desc>
  <style>
    text { font-family: Inter, Arial, Helvetica, sans-serif; fill: #111827; }
    .title { font-size: 24px; font-weight: 700; }
    .subtitle { font-size: 13px; fill: #6b7280; }
    .step-title { font-size: 13px; font-weight: 700; }
    .node-sub { font-size: 11px; fill: #6b7280; }
    .gate { font-size: 11px; font-weight: 700; fill: #374151; }
    .label { font-size: 11px; fill: #374151; }
  </style>
  <defs>
    <marker id="arrow-blue" markerWidth="10" markerHeight="7" refX="9" refY="3.5" orient="auto">
      <polygon points="0 0, 10 3.5, 0 7" fill="#2563eb"/>
    </marker>
    <marker id="arrow-red" markerWidth="10" markerHeight="7" refX="9" refY="3.5" orient="auto">
      <polygon points="0 0, 10 3.5, 0 7" fill="#dc2626"/>
    </marker>
    <marker id="arrow-green" markerWidth="10" markerHeight="7" refX="9" refY="3.5" orient="auto">
      <polygon points="0 0, 10 3.5, 0 7" fill="#16a34a"/>
    </marker>
    <marker id="arrow-gray" markerWidth="10" markerHeight="7" refX="9" refY="3.5" orient="auto">
      <polygon points="0 0, 10 3.5, 0 7" fill="#6b7280"/>
    </marker>
  </defs>
  <rect width="1200" height="620" fill="#ffffff"/>
  <text x="40" y="44" class="title">CausaForge Core Workflow</text>
  <text x="40" y="68" class="subtitle">Each phase emits one schema-validated artifact; failed gates return to Building for a controlled repair pass.</text>
  <rect x="45" y="210" width="130" height="76" rx="12" fill="#eff6ff" stroke="#bfdbfe" stroke-width="1.5"/>
  <text x="110.0" y="237" text-anchor="middle" class="step-title">Input</text>
  <text x="110.0" y="258" text-anchor="middle" class="node-sub">problem statement</text>
  <text x="110.0" y="274" text-anchor="middle" class="node-sub">or imported cause</text>
  <rect x="215" y="210" width="120" height="76" rx="12" fill="#fff7ed" stroke="#fed7aa" stroke-width="1.5"/>
  <text x="275.0" y="237" text-anchor="middle" class="step-title">Root Cause</text>
  <text x="275.0" y="258" text-anchor="middle" class="node-sub">scope boundary</text>
  <text x="275.0" y="274" text-anchor="middle" class="node-sub">root-cause</text>
  <rect x="365" y="210" width="120" height="76" rx="12" fill="#faf5ff" stroke="#ddd6fe" stroke-width="1.5"/>
  <text x="425.0" y="237" text-anchor="middle" class="step-title">Planning</text>
  <text x="425.0" y="258" text-anchor="middle" class="node-sub">approved paths</text>
  <text x="425.0" y="274" text-anchor="middle" class="node-sub">patch-plan</text>
  <rect x="515" y="210" width="120" height="76" rx="12" fill="#eff6ff" stroke="#bfdbfe" stroke-width="1.5"/>
  <text x="575.0" y="237" text-anchor="middle" class="step-title">Building</text>
  <text x="575.0" y="258" text-anchor="middle" class="node-sub">candidate patch</text>
  <text x="575.0" y="274" text-anchor="middle" class="node-sub">patch-candidate</text>
  <rect x="665" y="210" width="120" height="76" rx="12" fill="#f0fdf4" stroke="#bbf7d0" stroke-width="1.5"/>
  <text x="725.0" y="237" text-anchor="middle" class="step-title">Verifying</text>
  <text x="725.0" y="258" text-anchor="middle" class="node-sub">regression proof</text>
  <text x="725.0" y="274" text-anchor="middle" class="node-sub">verification</text>
  <rect x="815" y="210" width="120" height="76" rx="12" fill="#fef2f2" stroke="#fecaca" stroke-width="1.5"/>
  <text x="875.0" y="237" text-anchor="middle" class="step-title">Reviewing</text>
  <text x="875.0" y="258" text-anchor="middle" class="node-sub">independent check</text>
  <text x="875.0" y="274" text-anchor="middle" class="node-sub">review</text>
  <rect x="965" y="210" width="120" height="76" rx="12" fill="#f0fdfa" stroke="#99f6e4" stroke-width="1.5"/>
  <text x="1025.0" y="237" text-anchor="middle" class="step-title">Delivering</text>
  <text x="1025.0" y="258" text-anchor="middle" class="node-sub">consistency check</text>
  <text x="1025.0" y="274" text-anchor="middle" class="node-sub">delivery</text>
  <rect x="1110" y="210" width="55" height="76" rx="12" fill="#ffffff" stroke="#d1d5db" stroke-width="1.5"/>
  <text x="1137.5" y="237" text-anchor="middle" class="step-title">Done</text>
  <text x="1137.5" y="258" text-anchor="middle" class="node-sub">complete</text>
  <path d="M 175,248 L 215,248" fill="none" stroke="#2563eb" stroke-width="2" marker-end="url(#arrow-blue)"/>
  <path d="M 335,248 L 365,248" fill="none" stroke="#2563eb" stroke-width="2" marker-end="url(#arrow-blue)"/>
  <path d="M 485,248 L 515,248" fill="none" stroke="#2563eb" stroke-width="2" marker-end="url(#arrow-blue)"/>
  <path d="M 635,248 L 665,248" fill="none" stroke="#2563eb" stroke-width="2" marker-end="url(#arrow-blue)"/>
  <path d="M 785,248 L 815,248" fill="none" stroke="#2563eb" stroke-width="2" marker-end="url(#arrow-blue)"/>
  <path d="M 935,248 L 965,248" fill="none" stroke="#2563eb" stroke-width="2" marker-end="url(#arrow-blue)"/>
  <path d="M 1085,248 L 1110,248" fill="none" stroke="#2563eb" stroke-width="2" marker-end="url(#arrow-blue)"/>
  <path d="M 725,210 L 725,146 L 575,146 L 575,210" fill="none" stroke="#dc2626" stroke-width="2" stroke-dasharray="6 4" marker-end="url(#arrow-red)"/>
  <rect x="615.0" y="121" width="90.0" height="20" rx="4" fill="#ffffff" opacity="0.96"/>
  <text x="660" y="135" text-anchor="middle" class="label">test failure</text>
  <path d="M 875,210 L 875,118 L 590,118 L 590,210" fill="none" stroke="#dc2626" stroke-width="2" stroke-dasharray="6 4" marker-end="url(#arrow-red)"/>
  <rect x="687.0" y="92" width="90.0" height="20" rx="4" fill="#ffffff" opacity="0.96"/>
  <text x="732" y="106" text-anchor="middle" class="label">review block</text>
  <path d="M 1025,210 L 1025,90 L 605,90 L 605,210" fill="none" stroke="#dc2626" stroke-width="2" stroke-dasharray="6 4" marker-end="url(#arrow-red)"/>
  <rect x="763.8" y="64" width="96.5" height="20" rx="4" fill="#ffffff" opacity="0.96"/>
  <text x="812" y="78" text-anchor="middle" class="label">diff mismatch</text>
  <polygon points="275,336.0 316.0,362 275,388.0 234.0,362" fill="#ffffff" stroke="#d1d5db" stroke-width="1.5"/>
  <text x="275" y="366" text-anchor="middle" class="gate">Cause?</text>
  <polygon points="425,336.0 466.0,362 425,388.0 384.0,362" fill="#ffffff" stroke="#d1d5db" stroke-width="1.5"/>
  <text x="425" y="366" text-anchor="middle" class="gate">Plan?</text>
  <polygon points="575,336.0 616.0,362 575,388.0 534.0,362" fill="#ffffff" stroke="#d1d5db" stroke-width="1.5"/>
  <text x="575" y="366" text-anchor="middle" class="gate">Scope?</text>
  <polygon points="725,336.0 766.0,362 725,388.0 684.0,362" fill="#ffffff" stroke="#d1d5db" stroke-width="1.5"/>
  <text x="725" y="366" text-anchor="middle" class="gate">Tests?</text>
  <polygon points="875,336.0 916.0,362 875,388.0 834.0,362" fill="#ffffff" stroke="#d1d5db" stroke-width="1.5"/>
  <text x="875" y="366" text-anchor="middle" class="gate">Review?</text>
  <polygon points="1025,336.0 1066.0,362 1025,388.0 984.0,362" fill="#ffffff" stroke="#d1d5db" stroke-width="1.5"/>
  <text x="1025" y="366" text-anchor="middle" class="gate">Deliver?</text>
  <path d="M 275,286 L 275,336" fill="none" stroke="#6b7280" stroke-width="2" stroke-dasharray="4 3" marker-end="url(#arrow-gray)"/>
  <path d="M 275,388 L 275,424" fill="none" stroke="#16a34a" stroke-width="2" stroke-dasharray="5 3" marker-end="url(#arrow-green)"/>
  <path d="M 425,286 L 425,336" fill="none" stroke="#6b7280" stroke-width="2" stroke-dasharray="4 3" marker-end="url(#arrow-gray)"/>
  <path d="M 425,388 L 425,424" fill="none" stroke="#16a34a" stroke-width="2" stroke-dasharray="5 3" marker-end="url(#arrow-green)"/>
  <path d="M 575,286 L 575,336" fill="none" stroke="#6b7280" stroke-width="2" stroke-dasharray="4 3" marker-end="url(#arrow-gray)"/>
  <path d="M 575,388 L 575,424" fill="none" stroke="#16a34a" stroke-width="2" stroke-dasharray="5 3" marker-end="url(#arrow-green)"/>
  <path d="M 725,286 L 725,336" fill="none" stroke="#6b7280" stroke-width="2" stroke-dasharray="4 3" marker-end="url(#arrow-gray)"/>
  <path d="M 725,388 L 725,424" fill="none" stroke="#16a34a" stroke-width="2" stroke-dasharray="5 3" marker-end="url(#arrow-green)"/>
  <path d="M 875,286 L 875,336" fill="none" stroke="#6b7280" stroke-width="2" stroke-dasharray="4 3" marker-end="url(#arrow-gray)"/>
  <path d="M 875,388 L 875,424" fill="none" stroke="#16a34a" stroke-width="2" stroke-dasharray="5 3" marker-end="url(#arrow-green)"/>
  <path d="M 1025,286 L 1025,336" fill="none" stroke="#6b7280" stroke-width="2" stroke-dasharray="4 3" marker-end="url(#arrow-gray)"/>
  <path d="M 1025,388 L 1025,424" fill="none" stroke="#16a34a" stroke-width="2" stroke-dasharray="5 3" marker-end="url(#arrow-green)"/>
  <path d="M 220,424 L 320,424 L 332,436 L 332,470 L 220,470 Z" fill="#ffffff" stroke="#d1d5db" stroke-width="1.3"/>
  <path d="M 320,424 L 320,436 L 332,436" fill="none" stroke="#d1d5db" stroke-width="1.3"/>
  <text x="276" y="451" text-anchor="middle" class="node-sub">root-cause.json</text>
  <path d="M 370,424 L 470,424 L 482,436 L 482,470 L 370,470 Z" fill="#ffffff" stroke="#d1d5db" stroke-width="1.3"/>
  <path d="M 470,424 L 470,436 L 482,436" fill="none" stroke="#d1d5db" stroke-width="1.3"/>
  <text x="426" y="451" text-anchor="middle" class="node-sub">patch-plan.json</text>
  <path d="M 520,424 L 620,424 L 632,436 L 632,470 L 520,470 Z" fill="#ffffff" stroke="#d1d5db" stroke-width="1.3"/>
  <path d="M 620,424 L 620,436 L 632,436" fill="none" stroke="#d1d5db" stroke-width="1.3"/>
  <text x="576" y="451" text-anchor="middle" class="node-sub">patch.diff</text>
  <path d="M 670,424 L 770,424 L 782,436 L 782,470 L 670,470 Z" fill="#ffffff" stroke="#d1d5db" stroke-width="1.3"/>
  <path d="M 770,424 L 770,436 L 782,436" fill="none" stroke="#d1d5db" stroke-width="1.3"/>
  <text x="726" y="451" text-anchor="middle" class="node-sub">verification.json</text>
  <path d="M 820,424 L 920,424 L 932,436 L 932,470 L 820,470 Z" fill="#ffffff" stroke="#d1d5db" stroke-width="1.3"/>
  <path d="M 920,424 L 920,436 L 932,436" fill="none" stroke="#d1d5db" stroke-width="1.3"/>
  <text x="876" y="451" text-anchor="middle" class="node-sub">review.json</text>
  <path d="M 970,424 L 1070,424 L 1082,436 L 1082,470 L 970,470 Z" fill="#ffffff" stroke="#d1d5db" stroke-width="1.3"/>
  <path d="M 1070,424 L 1070,436 L 1082,436" fill="none" stroke="#d1d5db" stroke-width="1.3"/>
  <text x="1026" y="451" text-anchor="middle" class="node-sub">delivery-package</text>
  <g transform="translate(45,510)">
    <rect x="0" y="0" width="510" height="78" rx="10" fill="#ffffff" stroke="#e5e7eb"/>
    <text x="18" y="25" class="step-title">Gate Rules</text>
    <text x="18" y="47" class="node-sub">1. Every artifact must match its schema and upstream artifact references.</text>
    <text x="18" y="65" class="node-sub">2. Writes must match current agent, phase, and approved product paths.</text>
  </g>
  <g transform="translate(620,510)">
    <rect x="0" y="0" width="530" height="78" rx="10" fill="#ffffff" stroke="#e5e7eb"/>
    <line x1="18" y1="24" x2="52" y2="24" stroke="#2563eb" stroke-width="2" marker-end="url(#arrow-blue)"/>
    <text x="62" y="29" class="node-sub">Phase advance</text>
    <line x1="175" y1="24" x2="209" y2="24" stroke="#16a34a" stroke-width="2" stroke-dasharray="5 3" marker-end="url(#arrow-green)"/>
    <text x="219" y="29" class="node-sub">Persist evidence</text>
    <line x1="350" y1="24" x2="384" y2="24" stroke="#dc2626" stroke-width="2" stroke-dasharray="6 4" marker-end="url(#arrow-red)"/>
    <text x="394" y="29" class="node-sub">Rollback</text>
    <text x="18" y="58" class="node-sub">Completion is proven by artifact chain, real patch files, and regression evidence.</text>
  </g>
</svg>
